# xmcd
#
# Track frame offsets:
#	150
#	25802
#	44322
#	62298
#	82982
#	108391
#	139321
#	155192
#	173400
#	193229
#
# Disc length: 2895 seconds
#
# Revision: 1
# Processed by: cddbd v1.5.2PL0 Copyright (c) Steve Scherf et al.
# Submitted via: audiograbber 1.83.01
#
DISCID=7e0b4d0a
DTITLE=Square Root - A Tribute To Dire Straits (Dire Straits Cover) (M. Knopfle
DTITLE=r)
DYEAR=1900
DGENRE=Country
TTITLE0=Sultans Of Swing
TTITLE1=On Every Street
TTITLE2=Walk Of Life
TTITLE3=Money For Nothing
TTITLE4=Private Investigations
TTITLE5=Calling Elvis
TTITLE6=Twistin, By The Pool
TTITLE7=Romeo and Juliet
TTITLE8=So Far Away
TTITLE9=Brothers In Arms
EXTD=
EXTT0=
EXTT1=
EXTT2=
EXTT3=
EXTT4=
EXTT5=
EXTT6=
EXTT7=
EXTT8=
EXTT9=
PLAYORDER=
